<?xml version="1.0" encoding="UTF-8"?>
<svg xmlns="http://www.w3.org/2000/svg" version="1.1" xmlns:cc="http://creativecommons.org/ns#" xmlns:dc="http://purl.org/dc/elements/1.1/" xmlns:inkscape="http://www.inkscape.org/namespaces/inkscape" xmlns:rdf="http://www.w3.org/1999/02/22-rdf-syntax-ns#" xmlns:sodipodi="http://sodipodi.sourceforge.net/DTD/sodipodi-0.dtd" xmlns:svg="http://www.w3.org/2000/svg" viewBox="0 0 32 32">
  <defs>
    <style>
      .cls-1 {
        fill: #fff;
      }

      .cls-2, .cls-3 {
        fill: lime;
      }

      .cls-2, .cls-3, .cls-4 {
        stroke: #000;
      }

      .cls-2, .cls-5 {
        display: none;
      }

      .cls-4 {
        fill: #e73100;
        stroke-width: 2px;
      }
    </style>
  </defs>
  <!-- Generator: Adobe Illustrator 28.7.1, SVG Export Plug-In . SVG Version: 1.2.0 Build 142)  -->
  <g>
    <g id="svg3797" inkscape:export-xdpi="90" inkscape:export-ydpi="90">
      <sodipodi:namedview id="base" bordercolor="#666666" borderopacity="1.0" inkscape:current-layer="layer1" inkscape:cx="-2.4229598" inkscape:cy="11.830286" inkscape:document-units="px" inkscape:grid-bbox="true" inkscape:pageopacity="0.0" inkscape:pageshadow="2" inkscape:window-height="1377" inkscape:window-maximized="1" inkscape:window-width="2560" inkscape:window-x="-8" inkscape:window-y="-8" inkscape:zoom="15.836083" pagecolor="#ffffff" showgrid="true">
        <inkscape:grid id="grid3805" type="xygrid"/>
      </sodipodi:namedview>
      <g id="layer1" class="cls-5" inkscape:groupmode="layer" inkscape:label="Layer 1">
        <rect class="cls-4" x="6.8" y="5.7" width="18.5" height="20.6"/>
        <circle id="path3807-0-1" class="cls-3" cx="6.8" cy="26.3" r="2.8"/>
        <circle id="path3807-0-7" class="cls-3" cx="25.2" cy="26.3" r="2.8"/>
        <circle id="path3807-0-7-0" class="cls-3" cx="6.8" cy="5.7" r="2.7"/>
        <circle id="path3807-0-7-9" class="cls-3" cx="25.2" cy="5.7" r="2.7"/>
        <circle id="path3807-0-7-4" class="cls-2" cx="20" cy="16" r="2.8"/>
      </g>
      <g>
        <polygon class="cls-1" points="22.4 4.6 4.4 21.9 4.4 27.2 10.4 27.2 26.7 11.2 27.5 8.3 22.4 4.6"/>
        <path d="M27.4,6.6l-2-2h0c-1.5-1.5-4-1.5-5.5,0L3.8,20.7c-.2.2-.3.5-.3.8v6c0,.6.5,1.1,1.1,1.1h6c.3,0,.6-.1.8-.3L27.4,12.1s0,0,0,0c1.5-1.5,1.5-4,0-5.5ZM10.1,26.4h-4.5v-4.5l4.5,4.5,1.5-1.5-4.5-4.5,9.8-9.8,4.5,4.5-11.3,11.3ZM25.8,10.6l-2.9,2.9-4.5-4.5,2.9-2.9c.7-.7,1.8-.7,2.5,0l2,2c.7.7.7,1.8,0,2.5Z"/>
      </g>
    </g>
  </g>
</svg>